HIERARCHY
ROOT pelvis
{
	OFFSET 0.000000 0.000000 0.000000
	CHANNELS 6 Xposition Yposition Zposition Zrotation Yrotation Xrotation
	JOINT left_hip
	{
		OFFSET 0.055779 -0.080629 -0.017705
		CHANNELS 3 Zrotation Yrotation Xrotation
		JOINT left_knee
		{
			OFFSET 0.039469 -0.359247 0.009008
			CHANNELS 3 Zrotation Yrotation Xrotation
			JOINT left_ankle
			{
				OFFSET -0.013809 -0.389899 -0.036404
				CHANNELS 3 Zrotation Yrotation Xrotation
				JOINT left_foot
				{
					OFFSET 0.037897 -0.056346 0.116500
					CHANNELS 3 Zrotation Yrotation Xrotation
					End Site
					{
						OFFSET 0.000000 0.000000 0.000000
					}
				}
			}
		}
	}
	JOINT right_hip
	{
		OFFSET -0.057787 -0.088871 -0.013401
		CHANNELS 3 Zrotation Yrotation Xrotation
		JOINT right_knee
		{
			OFFSET -0.039496 -0.356943 -0.002206
			CHANNELS 3 Zrotation Yrotation Xrotation
			JOINT right_ankle
			{
				OFFSET 0.017959 -0.383749 -0.033094
				CHANNELS 3 Zrotation Yrotation Xrotation
				JOINT right_foot
				{
					OFFSET -0.031235 -0.058281 0.124713
					CHANNELS 3 Zrotation Yrotation Xrotation
					End Site
					{
						OFFSET 0.000000 0.000000 0.000000
					}
				}
			}
		}
	}
	JOINT spine1
	{
		OFFSET 0.004196 0.122659 -0.034271
		CHANNELS 3 Zrotation Yrotation Xrotation
		JOINT spine2
		{
			OFFSET 0.005122 0.143143 0.029537
			CHANNELS 3 Zrotation Yrotation Xrotation
			JOINT spine3
			{
				OFFSET -0.001923 0.057757 0.004628
				CHANNELS 3 Zrotation Yrotation Xrotation
				JOINT neck
				{
					OFFSET -0.013781 0.203940 -0.035143
					CHANNELS 3 Zrotation Yrotation Xrotation
					JOINT head
					{
						OFFSET 0.009065 0.086539 0.049216
						CHANNELS 3 Zrotation Yrotation Xrotation
						End Site
						{
							OFFSET 0.000000 0.000000 0.000000
						}
					}
				}
				JOINT left_collar
				{
					OFFSET 0.070315 0.109742 -0.020357
					CHANNELS 3 Zrotation Yrotation Xrotation
					JOINT left_shoulder
					{
						OFFSET 0.122280 0.043464 -0.020451
						CHANNELS 3 Zrotation Yrotation Xrotation
						JOINT left_elbow
						{
							OFFSET 0.245347 -0.013316 -0.020298
							CHANNELS 3 Zrotation Yrotation Xrotation
							JOINT left_wrist
							{
								OFFSET 0.251466 0.010925 -0.008411
								CHANNELS 3 Zrotation Yrotation Xrotation
								End Site
								{
									OFFSET 0.000000 0.000000 0.000000
								}
							}
						}
					}
				}
				JOINT right_collar
				{
					OFFSET -0.083386 0.108780 -0.024575
					CHANNELS 3 Zrotation Yrotation Xrotation
					JOINT right_shoulder
					{
						OFFSET -0.112806 0.044731 -0.008805
						CHANNELS 3 Zrotation Yrotation Xrotation
						JOINT right_elbow
						{
							OFFSET -0.248827 -0.010357 -0.028458
							CHANNELS 3 Zrotation Yrotation Xrotation
							JOINT right_wrist
							{
								OFFSET -0.255561 0.006434 -0.006231
								CHANNELS 3 Zrotation Yrotation Xrotation
								End Site
								{
									OFFSET 0.000000 0.000000 0.000000
								}
							}
						}
					}
				}
			}
		}
	}
}
MOTION
Frames: 17
Frame Time: 0.033333
-0.427679 0.713621 -1.958598 0.000000 0.000000 0.000000 -1.809420 0.171622 -6.943111 -0.014796 -0.091289 7.012809 0.487594 -0.053825 -0.074428 0.000000 0.000000 0.000000 -0.870563 -0.002604 -1.924090 -0.006172 -0.072342 -2.078622 -0.443165 0.131159 3.997940 0.000000 0.000000 0.000000 -1.744317 -0.047628 -0.003245 0.000000 0.000000 0.000000 -0.481554 -0.083393 0.001209 0.000000 0.000000 0.000000 0.000000 0.000000 0.000000 0.000000 0.000000 0.000000 0.000000 0.000000 0.000000 0.000000 0.000000 0.000000 0.000000 0.000000 0.000000 0.000000 0.000000 0.000000 0.000000 0.000000 0.000000 0.000000 0.000000 0.000000 0.000000 0.000000 0.000000
-0.382483 0.688038 -1.988937 3.429400 60.066600 5.341400 18.590822 15.428789 -18.326924 -1.513598 -1.370395 56.707247 0.989905 18.865312 -23.329140 0.000000 0.000000 0.000000 -28.125612 5.733409 -46.460996 -0.013481 0.599231 56.028350 2.035062 18.613579 -17.996447 0.000000 0.000000 0.000000 -8.200448 -14.936468 15.216003 0.000000 0.000000 0.000000 10.623675 -3.736920 -8.464008 -17.810912 -17.740638 25.158587 36.759947 -30.699103 -29.272372 0.000000 0.000000 0.000000 -78.468130 0.427272 21.495927 17.046585 -25.042226 -7.538620 -0.384803 -2.458540 17.788520 0.000000 0.000000 0.000000 65.705073 -5.177540 29.496961 -20.129726 28.474538 -9.462058 0.002357 -0.194823 -1.386378
-0.382336 0.688969 -1.989073 3.947500 59.193500 5.714600 18.241754 15.860178 -17.635481 -1.509356 -1.378535 56.214777 0.988299 18.872351 -23.314813 0.000000 0.000000 0.000000 -28.403200 5.971893 -46.769761 -0.019588 0.593469 55.806423 2.100936 19.477056 -17.563585 0.000000 0.000000 0.000000 -8.548233 -15.062190 14.856850 0.000000 0.000000 0.000000 10.756093 -3.778571 -8.373924 -17.770389 -17.641350 25.380633 36.694534 -30.565010 -29.247103 0.000000 0.000000 0.000000 -77.764315 -0.741303 19.631411 14.412980 -21.836411 -6.002874 -0.621418 -3.099948 22.665407 0.000000 0.000000 0.000000 65.930978 -5.833233 27.245568 -18.840550 27.080704 -8.642478 0.011693 -0.433787 -3.088109
-0.382769 0.689182 -1.989469 4.178300 58.771000 5.722600 18.095748 16.062447 -17.299670 -1.517335 -1.383475 56.173016 1.028735 19.247568 -23.105884 0.000000 0.000000 0.000000 -28.544200 6.074767 -46.808837 -0.023791 0.589626 55.663841 2.170320 20.242620 -17.127209 0.000000 0.000000 0.000000 -8.634987 -15.300811 14.818124 0.000000 0.000000 0.000000 10.848879 -3.841951 -8.369213 -17.756592 -17.733095 25.215893 36.535835 -30.790955 -29.051795 0.000000 0.000000 0.000000 -77.246779 -1.728685 17.268306 13.054463 -20.081783 -5.253918 -0.828976 -3.555626 26.239853 0.000000 0.000000 0.000000 65.948101 -6.154164 25.704638 -17.610764 25.695926 -7.881016 0.014383 -0.481057 -3.425021
-0.383616 0.688792 -1.989668 4.023000 58.628300 5.417300 18.266373 16.186535 -17.218663 -1.524155 -1.383137 56.357177 1.029057 19.171147 -23.232870 0.000000 0.000000 0.000000 -28.450265 6.149508 -46.837205 -0.023804 0.589751 55.679146 2.204867 20.555187 -16.847488 0.000000 0.000000 0.000000 -8.488914 -15.442216 14.803035 0.000000 0.000000 0.000000 10.753837 -3.873872 -8.467328 -17.706314 -17.736902 25.256242 36.612857 -30.766509 -29.163625 0.000000 0.000000 0.000000 -76.668216 -2.547173 16.400661 12.783395 -19.723452 -5.108256 -0.859552 -3.616879 26.728655 0.000000 0.000000 0.000000 66.095858 -6.536704 24.855021 -16.654403 24.581075 -7.303301 0.007740 -0.352969 -2.512338
-0.384609 0.688030 -1.990023 3.868600 58.380200 5.130600 18.470606 16.506451 -17.156992 -1.541203 -1.386153 56.627646 1.076975 19.546092 -22.940696 0.000000 0.000000 0.000000 -28.358638 6.219500 -46.989292 -0.025150 0.591662 55.748386 2.234473 20.784376 -16.675332 0.000000 0.000000 0.000000 -8.334011 -15.373904 14.806066 0.000000 0.000000 0.000000 10.754458 -3.848203 -8.450311 -17.728474 -17.730176 25.185863 36.633974 -30.736271 -29.164475 0.000000 0.000000 0.000000 -76.387383 -3.436688 16.951604 13.427323 -20.570259 -5.456373 -0.729861 -3.347438 24.593636 0.000000 0.000000 0.000000 66.002433 -6.539868 25.003258 -15.971070 23.764082 -6.898670 0.002221 -0.189105 -1.345677
-0.385479 0.687206 -1.990711 3.795600 58.142900 4.932600 18.580982 16.808027 -17.159598 -1.548804 -1.383702 56.923744 1.043857 19.088872 -23.409987 0.000000 0.000000 0.000000 -28.344947 6.246939 -47.111512 -0.027979 0.590849 55.765277 2.279177 21.158520 -16.519474 0.000000 0.000000 0.000000 -8.184074 -15.141987 14.826841 0.000000 0.000000 0.000000 10.672617 -3.774269 -8.530830 -17.730309 -17.711310 25.476598 36.854621 -30.686580 -29.337757 0.000000 0.000000 0.000000 -76.241845 -4.154543 18.154562 14.780693 -22.299443 -6.210780 -0.541327 -2.900996 21.135382 0.000000 0.000000 0.000000 65.986389 -6.521957 25.583694 -15.667346 23.395366 -6.721148 0.000077 -0.035169 -0.250241
-0.386505 0.686571 -1.991400 3.500700 58.005800 4.486100 18.820394 16.937673 -17.134905 -1.559352 -1.382798 57.215798 1.058961 19.119348 -23.479339 0.000000 0.000000 0.000000 -28.157366 6.174587 -47.112453 -0.034435 0.585999 55.758902 2.337393 21.664705 -16.200828 0.000000 0.000000 0.000000 -8.004206 -14.976349 14.942985 0.000000 0.000000 0.000000 10.596175 -3.715930 -8.646848 -17.636101 -17.735924 25.306478 36.574980 -30.844003 -28.856777 0.000000 0.000000 0.000000 -76.285949 -4.848839 19.159931 16.404636 -24.284469 -7.154641 -0.371875 -2.417914 17.484668 0.000000 0.000000 0.000000 66.042410 -6.249089 26.124143 -15.685592 23.417604 -6.731709 0.000352 0.075348 0.536131
-0.387178 0.686073 -1.992026 3.618000 57.886600 4.386800 18.794814 17.044598 -17.108224 -1.570303 -1.383989 57.412139 1.090358 19.376896 -23.281661 0.000000 0.000000 0.000000 -28.227550 6.233831 -47.111690 -0.034131 0.587228 55.797927 2.353683 21.779653 -16.203416 0.000000 0.000000 0.000000 -8.154303 -14.817144 15.063156 0.000000 0.000000 0.000000 10.626014 -3.671696 -8.687299 -17.658895 -17.784967 25.168122 36.388408 -31.032816 -28.494308 0.000000 0.000000 0.000000 -76.465297 -5.351233 20.445063 18.367509 -26.554415 -8.347119 -0.234823 -1.929986 13.872927 0.000000 0.000000 0.000000 66.110580 -5.854237 26.719922 -16.149535 23.979151 -7.003733 0.000446 0.084769 0.603173
-0.387565 0.685657 -1.992757 3.777000 57.827500 4.319700 18.726039 17.035204 -17.051681 -1.581487 -1.386098 57.565774 1.119947 19.656906 -23.210251 0.000000 0.000000 0.000000 -28.338897 6.353987 -47.042568 -0.031756 0.589607 55.826468 2.349665 21.699599 -16.350675 0.000000 0.000000 0.000000 -8.349471 -14.788015 15.155217 0.000000 0.000000 0.000000 10.734463 -3.671127 -8.608468 -17.604889 -17.797061 24.786129 35.885289 -31.140672 -28.053980 0.000000 0.000000 0.000000 -76.780961 -5.933025 21.575814 20.208721 -28.558022 -9.512942 -0.157667 -1.585418 11.357906 0.000000 0.000000 0.000000 66.097214 -5.167857 27.687745 -16.892390 24.861518 -7.445797 0.000001 0.002463 0.017528
-0.388207 0.685046 -1.993373 3.614500 57.770500 4.188400 18.809723 17.119886 -17.185532 -1.590960 -1.386917 57.742686 1.147748 19.877987 -23.168482 0.000000 0.000000 0.000000 -28.320203 6.439550 -47.149372 -0.036673 0.584146 55.814484 2.362149 21.785863 -16.286677 0.000000 0.000000 0.000000 -8.234996 -14.761622 14.959288 0.000000 0.000000 0.000000 10.709970 -3.654478 -8.644081 -17.641225 -17.810335 25.372522 36.133346 -31.153908 -28.665107 0.000000 0.000000 0.000000 -76.943205 -6.202749 21.921924 21.873053 -30.267769 -10.602616 -0.213609 -1.842017 13.228360 0.000000 0.000000 0.000000 66.107705 -4.605494 28.600016 -17.995859 26.135351 -8.117195 0.000239 -0.062029 -0.441362
-0.388294 0.684699 -1.994103 3.689200 57.826400 4.212400 18.746001 17.108022 -17.322458 -1.597669 -1.386139 57.927847 1.160912 19.979641 -23.158452 0.000000 0.000000 0.000000 -28.407679 6.391524 -47.144260 -0.035789 0.585183 55.843404 2.382907 21.955698 -16.126029 0.000000 0.000000 0.000000 -8.308916 -14.819842 14.896211 0.000000 0.000000 0.000000 10.740199 -3.669808 -8.654823 -17.694931 -17.832228 25.301452 36.205232 -31.178775 -28.657903 0.000000 0.000000 0.000000 -77.232946 -6.618954 24.307979 23.301976 -31.661322 -11.563221 -0.122080 -1.396665 9.990328 0.000000 0.000000 0.000000 66.051751 -3.876396 29.568742 -19.357973 27.647066 -8.968768 0.001269 -0.142909 -1.016913
-0.388302 0.684052 -1.994729 3.737000 57.795400 4.189700 18.761608 17.206648 -17.377585 -1.601420 -1.383881 58.112151 1.133830 19.669685 -23.409226 0.000000 0.000000 0.000000 -28.460978 6.336953 -47.193227 -0.037962 0.584725 55.906208 2.393370 21.989826 -16.169388 0.000000 0.000000 0.000000 -8.381736 -14.819765 14.866346 0.000000 0.000000 0.000000 10.756079 -3.682798 -8.546861 -17.754618 -17.838816 25.153329 36.418849 -31.104981 -28.727848 0.000000 0.000000 0.000000 -77.410605 -7.101842 25.454861 24.197218 -32.500445 -12.176007 -0.132424 -1.454153 10.406189 0.000000 0.000000 0.000000 65.958548 -3.143635 30.555286 -21.035313 29.418922 -10.050045 0.002337 -0.194003 -1.380538
-0.388188 0.683678 -1.995209 3.728700 57.689500 4.064500 18.818144 17.230619 -17.227872 -1.605011 -1.383685 58.202138 1.117278 19.487444 -23.625356 0.000000 0.000000 0.000000 -28.487621 6.461079 -47.165175 -0.038881 0.584046 55.920400 2.397565 21.999744 -16.215573 0.000000 0.000000 0.000000 -8.485717 -14.753111 14.901165 0.000000 0.000000 0.000000 10.778731 -3.663092 -8.551561 -17.751400 -17.846803 25.159100 36.487851 -31.123121 -28.708111 0.000000 0.000000 0.000000 -77.576650 -7.463065 26.415045 24.556800 -32.830256 -12.424490 -0.147837 -1.535687 10.996999 0.000000 0.000000 0.000000 65.788529 -2.459168 31.642210 -22.748837 31.129883 -11.188764 0.004061 -0.255688 -1.819628
-0.388042 0.683621 -1.995523 3.598300 57.622700 3.855700 18.852604 17.260748 -17.167678 -1.620511 -1.388045 58.335149 1.214397 20.393036 -23.013669 0.000000 0.000000 0.000000 -28.439852 6.513282 -47.082347 -0.040073 0.583186 55.864978 2.411170 22.131579 -16.105260 0.000000 0.000000 0.000000 -8.466189 -14.758798 14.885498 0.000000 0.000000 0.000000 10.805267 -3.662832 -8.540456 -17.778795 -17.822807 25.340989 36.536811 -31.072922 -28.878786 0.000000 0.000000 0.000000 -77.766611 -7.825261 26.829740 24.267374 -32.565053 -12.224323 -0.164926 -1.621114 11.617415 0.000000 0.000000 0.000000 65.561516 -1.801451 32.646340 -24.413055 32.698940 -12.324993 0.006190 -0.315675 -2.246744
-0.387777 0.683594 -1.995783 3.365000 57.562900 3.623700 18.952224 17.234706 -17.123862 -1.621308 -1.386272 58.435386 1.210723 20.301239 -23.168865 0.000000 0.000000 0.000000 -28.342412 6.522722 -47.020640 -0.036974 0.583053 55.772961 2.450855 22.533109 -15.659167 0.000000 0.000000 0.000000 -8.328498 -14.759636 14.790823 0.000000 0.000000 0.000000 10.807361 -3.660338 -8.493995 -17.816293 -17.813229 25.275854 36.393020 -31.076035 -28.827139 0.000000 0.000000 0.000000 -77.956443 -8.128904 26.816636 23.546457 -31.893000 -11.729751 -0.186393 -1.722197 12.353268 0.000000 0.000000 0.000000 65.272508 -1.127459 33.617675 -25.923117 34.046813 -13.379793 0.009310 -0.387100 -2.755463
-0.387160 0.683568 -1.995982 3.312400 57.403600 3.548700 18.920341 17.221846 -17.012251 -1.628079 -1.387701 58.489900 1.222084 20.391456 -23.223207 0.000000 0.000000 0.000000 -28.315060 6.476580 -47.045007 -0.037756 0.582503 55.742747 2.466694 22.678830 -15.608272 0.000000 0.000000 0.000000 -8.348750 -14.637657 14.706243 0.000000 0.000000 0.000000 10.775310 -3.628204 -8.485302 -17.734387 -17.802879 25.468392 36.463684 -31.037246 -29.055181 0.000000 0.000000 0.000000 -78.071172 -8.233916 26.469307 22.659148 -31.042672 -11.128285 -0.207901 -1.817580 13.049581 0.000000 0.000000 0.000000 65.060230 -0.539939 34.362139 -27.166480 35.104601 -14.264202 0.011275 -0.425977 -3.032454
